# xmcd
#
# Track frame offsets:
#	150
#	13644
#	32714
#	46378
#	62161
#	74982
#	85076
#	96960
#	112713
#	127091
#	138525
#	149208
#	160055
#
# Disc length: 2371 seconds
#
# Revision: 1
# Processed by: cddbd v1.5.2PL0 Copyright (c) Steve Scherf et al.
# Submitted via: audiograbber 1.83.01
#
DISCID=c109410d
DTITLE=DEAN PERRETT - CATTLE TOWN
DYEAR=2011
DGENRE=COUNTRY
TTITLE0=CATTLE TOWN
TTITLE1=CHANNEL COUNTRY GROUND WITH LEE KERNAGHAN
TTITLE2=ABBEY
TTITLE3=SON OF A SON OF A DROVER
TTITLE4=ROLLIN' ROAD TRAIN
TTITLE5=OLD AKUBRA
TTITLE6=MORNING MAIL WITH KAREN LYNNE
TTITLE7=THERE'S ROOM AT THE CROSS
TTITLE8=HOLDING THE REDHIDE
TTITLE9=I GOT STRIPES WITH BOB WOOTTON
TTITLE10=MADE FOR MOVIN'
TTITLE11=OLD RODEO MAN
TTITLE12=WHAT COUNTRY WAS
EXTD=
EXTT0=
EXTT1=
EXTT2=
EXTT3=
EXTT4=
EXTT5=
EXTT6=
EXTT7=
EXTT8=
EXTT9=
EXTT10=
EXTT11=
EXTT12=
PLAYORDER=
